<!-- Generated device preview for garethpaul/BrandCapture -->
<svg xmlns="http://www.w3.org/2000/svg" width="1200" height="675" viewBox="0 0 1200 675" role="img" aria-labelledby="dwllpxa-title dwllpxa-desc">
  <title id="dwllpxa-title">BrandCapture device preview</title>
  <desc id="dwllpxa-desc">iPhone device preview for garethpaul/BrandCapture. Screenshot: BrandCapture/screenshot.png.</desc>
  <defs>
    <linearGradient id="dwllpxa-bg" x1="0" y1="0" x2="1" y2="1"><stop offset="0%" stop-color="#dbeafe"/><stop offset="55%" stop-color="#f8fafc"/><stop offset="100%" stop-color="#fce7f3"/></linearGradient>
    <linearGradient id="dwllpxa-device" x1="0" y1="0" x2="1" y2="1"><stop offset="0%" stop-color="#020617"/><stop offset="62%" stop-color="#111827"/><stop offset="100%" stop-color="#111827"/></linearGradient>
    <linearGradient id="dwllpxa-screen" x1="0" y1="0" x2="1" y2="1"><stop offset="0%" stop-color="#eff6ff"/><stop offset="100%" stop-color="#fdf2f8"/></linearGradient>
    <linearGradient id="dwllpxa-accent" x1="0" y1="0" x2="1" y2="1"><stop offset="0%" stop-color="#2563eb"/><stop offset="55%" stop-color="#14b8a6"/><stop offset="100%" stop-color="#f97316"/></linearGradient>
    <filter id="dwllpxa-shadow" x="-20%" y="-20%" width="140%" height="150%"><feDropShadow dx="0" dy="24" stdDeviation="22" flood-color="#0f172a" flood-opacity="0.20"/></filter>
    <filter id="dwllpxa-softShadow" x="-20%" y="-20%" width="140%" height="150%"><feDropShadow dx="0" dy="12" stdDeviation="14" flood-color="#0f172a" flood-opacity="0.13"/></filter>
    <clipPath id="dwllpxa-screen-118-50"><rect x="142" y="102" width="306" height="482" rx="34"/></clipPath>
    <style>.ui { font-family: ui-sans-serif, system-ui, -apple-system, BlinkMacSystemFont, "Segoe UI", sans-serif; letter-spacing: 0; }</style>
  </defs>
  <rect width="1200" height="675" fill="url(#dwllpxa-bg)"/>
  <path d="M0 560 C170 502 282 636 438 560 C612 476 732 420 908 474 C1052 518 1110 390 1200 344 L1200 675 L0 675Z" fill="#2563eb" opacity="0.08"/>
  <circle cx="1040" cy="118" r="180" fill="#14b8a6" opacity="0.12"/>
  <circle cx="128" cy="586" r="168" fill="#f97316" opacity="0.12"/>
  <g class="ui">
    <g><rect x="118" y="50" width="354" height="574" rx="54" fill="url(#dwllpxa-device)" filter="url(#dwllpxa-shadow)"/><rect x="142" y="102" width="306" height="482" rx="34" fill="url(#dwllpxa-screen)"/><g clip-path="url(#dwllpxa-screen-118-50)"><rect x="142" y="102" width="306" height="482" fill="url(#dwllpxa-screen)"/><rect x="142" y="102" width="306" height="67" fill="#111827" opacity="0.95"/><circle cx="176" cy="136" r="10" fill="#ffffff" opacity="0.92"/><text x="200" y="142" fill="#ffffff" font-size="18" font-weight="850">BrandCapture</text><rect x="170" y="197" width="250" height="96" rx="22" fill="#ffffff" opacity="0.93"/><rect x="194" y="225" width="116" height="14" rx="7" fill="#2563eb" opacity="0.82"/><rect x="194" y="255" width="168" height="12" rx="6" fill="#cbd5e1"/><rect x="346" y="225" width="46" height="46" rx="15" fill="#14b8a6" opacity="0.72"/><rect x="170" y="318" width="117" height="87" rx="20" fill="#ffffff" opacity="0.84"/><rect x="303" y="318" width="117" height="87" rx="20" fill="#ffffff" opacity="0.84"/><path d="M194 496 C 228 454, 277 528, 332 486 S 399 504, 404 462" fill="none" stroke="#f97316" stroke-width="8" stroke-linecap="round" opacity="0.78"/><rect x="170" y="536" width="250" height="10" rx="5" fill="#cbd5e1" opacity="0.76"/><rect x="142" y="102" width="306" height="482" fill="#0f172a" opacity="0.12"/><image href="../BrandCapture/screenshot.png" x="142" y="102" width="306" height="482" preserveAspectRatio="xMidYMid meet"/></g><rect x="249" y="74" width="92" height="14" rx="7" fill="#020617" opacity="0.86"/><rect x="261" y="598" width="68" height="6" rx="3" fill="#64748b" opacity="0.58"/></g>
    <g transform="translate(700 116)"><rect x="0" y="0" width="390" height="80" rx="24" fill="#ffffff" opacity="0.92" filter="url(#dwllpxa-softShadow)"/><circle cx="42" cy="40" r="18" fill="url(#dwllpxa-accent)"/><text x="76" y="34" fill="#64748b" font-size="14" font-weight="800" text-transform="uppercase">iPhone device preview</text><text x="76" y="58" fill="#0f172a" font-size="18" font-weight="850">Linked screenshot asset</text></g>
    <g transform="translate(700 236)"><text x="0" y="0" fill="#0f172a" font-size="44" font-weight="850">BrandCapture</text><text x="2" y="168" fill="#475569" font-size="20" font-weight="560">An Apple platform application or</text>
<text x="2" y="198" fill="#475569" font-size="20" font-weight="560">Swift sample. An iOS App that</text>
<text x="2" y="228" fill="#475569" font-size="20" font-weight="560">automatically</text></g>
    <g transform="translate(700 496)"><rect x="0" y="0" width="390" height="82" rx="24" fill="#0f172a" opacity="0.95" filter="url(#dwllpxa-softShadow)"/><text x="28" y="34" fill="#cbd5e1" font-size="15" font-weight="750">garethpaul/BrandCapture</text><text x="28" y="60" fill="#14b8a6" font-size="15" font-weight="800">docs/device-preview.svg</text><circle cx="346" cy="41" r="16" fill="#2563eb"/><circle cx="366" cy="41" r="16" fill="#14b8a6" opacity="0.86"/></g>
  </g>
</svg>
